<?xml version="1.0" encoding="UTF-8" standalone="no"?>
<svg
   xmlns:dc="http://purl.org/dc/elements/1.1/"
   xmlns:cc="http://creativecommons.org/ns#"
   xmlns:rdf="http://www.w3.org/1999/02/22-rdf-syntax-ns#"
   xmlns:svg="http://www.w3.org/2000/svg"
   xmlns="http://www.w3.org/2000/svg"
   xmlns:sodipodi="http://sodipodi.sourceforge.net/DTD/sodipodi-0.dtd"
   xmlns:inkscape="http://www.inkscape.org/namespaces/inkscape"
   height="28"
   viewBox="0 96 960 960"
   width="28"
   version="1.1"
   id="svg4"
   sodipodi:docname="mail.svg"
   inkscape:version="1.0.2-2 (e86c870879, 2021-01-15)">
  <metadata
     id="metadata10">
    <rdf:RDF>
      <cc:Work
         rdf:about="">
        <dc:format>image/svg+xml</dc:format>
        <dc:type
           rdf:resource="http://purl.org/dc/dcmitype/StillImage" />
      </cc:Work>
    </rdf:RDF>
  </metadata>
  <defs
     id="defs8" />
  <sodipodi:namedview
     pagecolor="#ffffff"
     bordercolor="#666666"
     borderopacity="1"
     objecttolerance="10"
     gridtolerance="10"
     guidetolerance="10"
     inkscape:pageopacity="0"
     inkscape:pageshadow="2"
     inkscape:window-width="1920"
     inkscape:window-height="1001"
     id="namedview6"
     showgrid="false"
     inkscape:zoom="17.041667"
     inkscape:cx="24"
     inkscape:cy="24"
     inkscape:window-x="-9"
     inkscape:window-y="-9"
     inkscape:window-maximized="1"
     inkscape:current-layer="svg4" />
  <path
     stroke="white"
     d="M142.5 891.5q-22.969 0-40.234-17.266Q85 856.969 85 834V318q0-22.969 17.266-40.234Q119.531 260.5 142.5 260.5h675q22.969 0 40.234 17.266Q875 295.031 875 318v516q0 22.969-17.266 40.234Q840.469 891.5 817.5 891.5h-675ZM480 592 142.5 370.5V834h675V370.5L480 592Zm0-57.5L813 318H148l332 216.5Zm-337.5-164V318v516-463.5Z"
     id="path2"
     style="fill:#ffffff" />
</svg>
