<?xml version="1.0" encoding="UTF-8" standalone="no"?>
<svg
   xmlns:dc="http://purl.org/dc/elements/1.1/"
   xmlns:cc="http://creativecommons.org/ns#"
   xmlns:rdf="http://www.w3.org/1999/02/22-rdf-syntax-ns#"
   xmlns:svg="http://www.w3.org/2000/svg"
   xmlns="http://www.w3.org/2000/svg"
   xmlns:sodipodi="http://sodipodi.sourceforge.net/DTD/sodipodi-0.dtd"
   xmlns:inkscape="http://www.inkscape.org/namespaces/inkscape"
   height="20"
   viewBox="0 96 960 960"
   width="20"
   version="1.1"
   id="svg4"
   sodipodi:docname="oin.svg"
   inkscape:version="1.0.2-2 (e86c870879, 2021-01-15)">
  <metadata
     id="metadata10">
    <rdf:RDF>
      <cc:Work
         rdf:about="">
        <dc:format>image/svg+xml</dc:format>
        <dc:type
           rdf:resource="http://purl.org/dc/dcmitype/StillImage" />
      </cc:Work>
    </rdf:RDF>
  </metadata>
  <defs
     id="defs8" />
  <sodipodi:namedview
     pagecolor="#ffffff"
     bordercolor="#666666"
     borderopacity="1"
     objecttolerance="10"
     gridtolerance="10"
     guidetolerance="10"
     inkscape:pageopacity="0"
     inkscape:pageshadow="2"
     inkscape:window-width="1920"
     inkscape:window-height="1001"
     id="namedview6"
     showgrid="false"
     inkscape:zoom="17.041667"
     inkscape:cx="24"
     inkscape:cy="24"
     inkscape:window-x="-9"
     inkscape:window-y="-9"
     inkscape:window-maximized="1"
     inkscape:current-layer="svg4" />
  <path
     d="M215.384 896q-23.057 0-39.221-16.163Q160 863.673 160 840.616V311.384q0-23.057 16.163-39.221Q192.327 256 215.384 256h224.385v30.769H215.384q-9.23 0-16.923 7.692-7.692 7.693-7.692 16.923v529.232q0 9.23 7.692 16.923 7.693 7.692 16.923 7.692h529.232q9.23 0 16.923-7.692 7.692-7.693 7.692-16.923V616.231H800v224.385q0 23.057-16.163 39.221Q767.673 896 744.616 896H215.384Zm171.231-204.384-22-22.231 382.616-382.616H541.308V256H800v258.692h-30.769V309L386.615 691.616Z"
     id="path2"
     style="stroke:#ffffff;fill:#ffffff" />
</svg>
