<?xml version="1.0" encoding="UTF-8" standalone="no"?>
<svg
   xmlns:dc="http://purl.org/dc/elements/1.1/"
   xmlns:cc="http://creativecommons.org/ns#"
   xmlns:rdf="http://www.w3.org/1999/02/22-rdf-syntax-ns#"
   xmlns:svg="http://www.w3.org/2000/svg"
   xmlns="http://www.w3.org/2000/svg"
   xmlns:sodipodi="http://sodipodi.sourceforge.net/DTD/sodipodi-0.dtd"
   xmlns:inkscape="http://www.inkscape.org/namespaces/inkscape"
   height="28"
   viewBox="0 96 960 960"
   width="28"
   version="1.1"
   id="svg4"
   sodipodi:docname="work.svg"
   inkscape:version="1.0.2-2 (e86c870879, 2021-01-15)">
  <metadata
     id="metadata10">
    <rdf:RDF>
      <cc:Work
         rdf:about="">
        <dc:format>image/svg+xml</dc:format>
        <dc:type
           rdf:resource="http://purl.org/dc/dcmitype/StillImage" />
      </cc:Work>
    </rdf:RDF>
  </metadata>
  <defs
     id="defs8" />
  <sodipodi:namedview
     pagecolor="#ffffff"
     bordercolor="#666666"
     borderopacity="1"
     objecttolerance="10"
     gridtolerance="10"
     guidetolerance="10"
     inkscape:pageopacity="0"
     inkscape:pageshadow="2"
     inkscape:window-width="1920"
     inkscape:window-height="1001"
     id="namedview6"
     showgrid="false"
     inkscape:zoom="17.041667"
     inkscape:cx="12.704156"
     inkscape:cy="23.794621"
     inkscape:window-x="-9"
     inkscape:window-y="-9"
     inkscape:window-maximized="1"
     inkscape:current-layer="svg4" />
  <path
     stroke="white"
     d="M142.5 931.5q-22.969 0-40.234-17.266Q85 896.969 85 874V397.5q0-22.969 17.266-40.234Q119.531 340 142.5 340H323v-99.5q0-22.969 17.266-40.234Q357.531 183 380.5 183h199q22.969 0 40.234 17.266Q637 217.531 637 240.5V340h180.5q22.969 0 40.234 17.266Q875 374.531 875 397.5V874q0 22.969-17.266 40.234Q840.469 931.5 817.5 931.5h-675Zm0-57.5h675V397.5h-675V874Zm238-534h199v-99.5h-199V340Zm-238 534V397.5 874Z"
     id="path2"
     style="stroke:#ffffff;fill:#ffffff" />
</svg>
